HIERARCHY
ROOT Root
{
  OFFSET 0.0 0.0 0.0
  CHANNELS 6 Xposition Yposition Zposition Zrotation Yrotation Xrotation
  JOINT Hips
  {
    OFFSET 0.0 100.0 0.0
    CHANNELS 6 Xposition Yposition Zposition Zrotation Yrotation Xrotation
    JOINT Spine1
    {
      OFFSET 5.003913 -0.037094 -0.013727
      CHANNELS 3 Zrotation Yrotation Xrotation
      JOINT Spine2
      {
        OFFSET 7.125363 -1e-06 0.0
        CHANNELS 3 Zrotation Yrotation Xrotation
        JOINT Chest
        {
          OFFSET 7.594027 1e-06 0.0
          CHANNELS 3 Zrotation Yrotation Xrotation
          JOINT Neck1
          {
            OFFSET 26.313086 -0.460272 -0.181672
            CHANNELS 3 Zrotation Yrotation Xrotation
            JOINT Neck2
            {
              OFFSET 8.045911 0.0 0.0
              CHANNELS 3 Zrotation Yrotation Xrotation
              JOINT Head
              {
                OFFSET 6.432774 0.0 0.0
                CHANNELS 3 Zrotation Yrotation Xrotation
                JOINT HeadEnd
                {
                  OFFSET 16.169773 0.06451 0.00362
                  CHANNELS 3 Zrotation Yrotation Xrotation
                }
                JOINT Jaw
                {
                  OFFSET 0.108741 3.12938 0.002639
                  CHANNELS 3 Zrotation Yrotation Xrotation
                }
                JOINT LeftEye
                {
                  OFFSET 4.45173 8.166359 3.206392
                  CHANNELS 3 Zrotation Yrotation Xrotation
                }
                JOINT RightEye
                {
                  OFFSET 4.436895 8.135758 -3.222429
                  CHANNELS 3 Zrotation Yrotation Xrotation
                }
              }
            }
          }
          JOINT LeftShoulder
          {
            OFFSET 23.218927 5.195579 1.621656
            CHANNELS 3 Zrotation Yrotation Xrotation
            JOINT LeftArm
            {
              OFFSET 15.902118 2e-06 -2e-06
              CHANNELS 3 Zrotation Yrotation Xrotation
              JOINT LeftForeArm
              {
                OFFSET 28.739307 0.0 -1e-06
                CHANNELS 3 Zrotation Yrotation Xrotation
                JOINT LeftHand
                {
                  OFFSET 27.093981 -4e-06 0.0
                  CHANNELS 3 Zrotation Yrotation Xrotation
                  JOINT LeftHandThumb1
                  {
                    OFFSET 2.276781 3.380274 0.83384
                    CHANNELS 3 Zrotation Yrotation Xrotation
                    JOINT LeftHandThumb2
                    {
                      OFFSET 4.705309 -1e-06 -1e-06
                      CHANNELS 3 Zrotation Yrotation Xrotation
                      JOINT LeftHandThumb3
                      {
                        OFFSET 2.798515 0.0 3e-06
                        CHANNELS 3 Zrotation Yrotation Xrotation
                        JOINT LeftHandThumbEnd
                        {
                          OFFSET 3.180793 4e-06 -4e-06
                          CHANNELS 3 Zrotation Yrotation Xrotation
                        }
                      }
                    }
                  }
                  JOINT LeftHandIndex1
                  {
                    OFFSET 3.247786 2.352677 0.137192
                    CHANNELS 3 Zrotation Yrotation Xrotation
                    JOINT LeftHandIndex2
                    {
                      OFFSET 6.367095 1e-06 0.0
                      CHANNELS 3 Zrotation Yrotation Xrotation
                      JOINT LeftHandIndex3
                      {
                        OFFSET 3.662364 0.0 0.0
                        CHANNELS 3 Zrotation Yrotation Xrotation
                        JOINT LeftHandIndex4
                        {
                          OFFSET 2.329242 4e-06 -4e-06
                          CHANNELS 3 Zrotation Yrotation Xrotation
                          JOINT LeftHandIndexEnd
                          {
                            OFFSET 2.767823 1e-06 0.0
                            CHANNELS 3 Zrotation Yrotation Xrotation
                          }
                        }
                      }
                    }
                  }
                  JOINT LeftHandMiddle1
                  {
                    OFFSET 3.163612 0.945023 -0.406112
                    CHANNELS 3 Zrotation Yrotation Xrotation
                    JOINT LeftHandMiddle2
                    {
                      OFFSET 6.276789 3e-06 0.0
                      CHANNELS 3 Zrotation Yrotation Xrotation
                      JOINT LeftHandMiddle3
                      {
                        OFFSET 4.35652 -1e-06 4e-06
                        CHANNELS 3 Zrotation Yrotation Xrotation
                        JOINT LeftHandMiddle4
                        {
                          OFFSET 2.996877 0.0 8e-06
                          CHANNELS 3 Zrotation Yrotation Xrotation
                          JOINT LeftHandMiddleEnd
                          {
                            OFFSET 2.323256 3e-06 -4e-06
                            CHANNELS 3 Zrotation Yrotation Xrotation
                          }
                        }
                      }
                    }
                  }
                  JOINT LeftHandRing1
                  {
                    OFFSET 2.882606 -0.309162 0.107445
                    CHANNELS 3 Zrotation Yrotation Xrotation
                    JOINT LeftHandRing2
                    {
                      OFFSET 6.033198 0.0 4e-06
                      CHANNELS 3 Zrotation Yrotation Xrotation
                      JOINT LeftHandRing3
                      {
                        OFFSET 4.350578 3e-06 0.0
                        CHANNELS 3 Zrotation Yrotation Xrotation
                        JOINT LeftHandRing4
                        {
                          OFFSET 2.651321 2e-06 -7e-06
                          CHANNELS 3 Zrotation Yrotation Xrotation
                          JOINT LeftHandRingEnd
                          {
                            OFFSET 1.937663 1e-06 -4e-06
                            CHANNELS 3 Zrotation Yrotation Xrotation
                          }
                        }
                      }
                    }
                  }
                  JOINT LeftHandPinky1
                  {
                    OFFSET 2.865315 -1.525436 0.575687
                    CHANNELS 3 Zrotation Yrotation Xrotation
                    JOINT LeftHandPinky2
                    {
                      OFFSET 5.54936 1e-06 -8e-06
                      CHANNELS 3 Zrotation Yrotation Xrotation
                      JOINT LeftHandPinky3
                      {
                        OFFSET 3.070974 0.0 -4e-06
                        CHANNELS 3 Zrotation Yrotation Xrotation
                        JOINT LeftHandPinky4
                        {
                          OFFSET 1.549672 1e-06 0.0
                          CHANNELS 3 Zrotation Yrotation Xrotation
                          JOINT LeftHandPinkyEnd
                          {
                            OFFSET 1.952123 0.0 0.0
                            CHANNELS 3 Zrotation Yrotation Xrotation
                          }
                        }
                      }
                    }
                  }
                }
              }
            }
          }
          JOINT RightShoulder
          {
            OFFSET 23.161716 5.296122 -1.380114
            CHANNELS 3 Zrotation Yrotation Xrotation
            JOINT RightArm
            {
              OFFSET -16.027195 -2e-06 1.1e-05
              CHANNELS 3 Zrotation Yrotation Xrotation
              JOINT RightForeArm
              {
                OFFSET -28.736639 4e-06 2e-06
                CHANNELS 3 Zrotation Yrotation Xrotation
                JOINT RightHand
                {
                  OFFSET -27.133619 6e-06 0.0
                  CHANNELS 3 Zrotation Yrotation Xrotation
                  JOINT RightHandThumb1
                  {
                    OFFSET -2.274328 -3.351035 -0.83067
                    CHANNELS 3 Zrotation Yrotation Xrotation
                    JOINT RightHandThumb2
                    {
                      OFFSET -4.703594 -3e-06 2e-06
                      CHANNELS 3 Zrotation Yrotation Xrotation
                      JOINT RightHandThumb3
                      {
                        OFFSET -2.794935 -4e-06 -3e-06
                        CHANNELS 3 Zrotation Yrotation Xrotation
                        JOINT RightHandThumbEnd
                        {
                          OFFSET -3.183852 4e-06 1e-06
                          CHANNELS 3 Zrotation Yrotation Xrotation
                        }
                      }
                    }
                  }
                  JOINT RightHandIndex1
                  {
                    OFFSET -3.253496 -2.33755 -0.127667
                    CHANNELS 3 Zrotation Yrotation Xrotation
                    JOINT RightHandIndex2
                    {
                      OFFSET -6.344434 0.0 0.0
                      CHANNELS 3 Zrotation Yrotation Xrotation
                      JOINT RightHandIndex3
                      {
                        OFFSET -3.654871 0.0 -8e-06
                        CHANNELS 3 Zrotation Yrotation Xrotation
                        JOINT RightHandIndex4
                        {
                          OFFSET -2.327586 -1e-06 0.0
                          CHANNELS 3 Zrotation Yrotation Xrotation
                          JOINT RightHandIndexEnd
                          {
                            OFFSET -2.770001 3e-06 8e-06
                            CHANNELS 3 Zrotation Yrotation Xrotation
                          }
                        }
                      }
                    }
                  }
                  JOINT RightHandMiddle1
                  {
                    OFFSET -3.168223 -0.944764 0.411762
                    CHANNELS 3 Zrotation Yrotation Xrotation
                    JOINT RightHandMiddle2
                    {
                      OFFSET -6.266691 -1e-06 -4e-06
                      CHANNELS 3 Zrotation Yrotation Xrotation
                      JOINT RightHandMiddle3
                      {
                        OFFSET -4.348901 0.0 0.0
                        CHANNELS 3 Zrotation Yrotation Xrotation
                        JOINT RightHandMiddle4
                        {
                          OFFSET -3.00024 2e-06 -4e-06
                          CHANNELS 3 Zrotation Yrotation Xrotation
                          JOINT RightHandMiddleEnd
                          {
                            OFFSET -2.321477 -4e-06 -4e-06
                            CHANNELS 3 Zrotation Yrotation Xrotation
                          }
                        }
                      }
                    }
                  }
                  JOINT RightHandRing1
                  {
                    OFFSET -2.885654 0.293261 -0.119232
                    CHANNELS 3 Zrotation Yrotation Xrotation
                    JOINT RightHandRing2
                    {
                      OFFSET -6.032835 -1e-06 -4e-06
                      CHANNELS 3 Zrotation Yrotation Xrotation
                      JOINT RightHandRing3
                      {
                        OFFSET -4.33881 0.0 -4e-06
                        CHANNELS 3 Zrotation Yrotation Xrotation
                        JOINT RightHandRing4
                        {
                          OFFSET -2.654903 -4e-06 -4e-06
                          CHANNELS 3 Zrotation Yrotation Xrotation
                          JOINT RightHandRingEnd
                          {
                            OFFSET -1.935122 0.0 4e-06
                            CHANNELS 3 Zrotation Yrotation Xrotation
                          }
                        }
                      }
                    }
                  }
                  JOINT RightHandPinky1
                  {
                    OFFSET -2.866241 1.503904 -0.60527
                    CHANNELS 3 Zrotation Yrotation Xrotation
                    JOINT RightHandPinky2
                    {
                      OFFSET -5.553177 -2e-06 0.0
                      CHANNELS 3 Zrotation Yrotation Xrotation
                      JOINT RightHandPinky3
                      {
                        OFFSET -3.062664 -1e-06 -4e-06
                        CHANNELS 3 Zrotation Yrotation Xrotation
                        JOINT RightHandPinky4
                        {
                          OFFSET -1.546529 2e-06 4e-06
                          CHANNELS 3 Zrotation Yrotation Xrotation
                          JOINT RightHandPinkyEnd
                          {
                            OFFSET -1.952341 0.0 -4e-06
                            CHANNELS 3 Zrotation Yrotation Xrotation
                          }
                        }
                      }
                    }
                  }
                }
              }
            }
          }
        }
      }
    }
    JOINT LeftLeg
    {
      OFFSET -8.443107 2.567604 10.043214
      CHANNELS 3 Zrotation Yrotation Xrotation
      JOINT LeftShin
      {
        OFFSET 43.229198 1e-06 -1e-06
        CHANNELS 3 Zrotation Yrotation Xrotation
        JOINT LeftFoot
        {
          OFFSET 42.298611 1e-06 1e-06
          CHANNELS 3 Zrotation Yrotation Xrotation
          JOINT LeftToeBase
          {
            OFFSET 14.165858 1e-06 0.0
            CHANNELS 3 Zrotation Yrotation Xrotation
            JOINT LeftToeEnd
            {
              OFFSET 6.7141 -0.234461 0.0
              CHANNELS 3 Zrotation Yrotation Xrotation
            }
          }
        }
      }
    }
    JOINT RightLeg
    {
      OFFSET -8.303923 2.592729 -10.047278
      CHANNELS 3 Zrotation Yrotation Xrotation
      JOINT RightShin
      {
        OFFSET -43.369682 0.0 1e-06
        CHANNELS 3 Zrotation Yrotation Xrotation
        JOINT RightFoot
        {
          OFFSET -42.260784 4e-06 2e-06
          CHANNELS 3 Zrotation Yrotation Xrotation
          JOINT RightToeBase
          {
            OFFSET -14.222245 -2e-06 -1e-06
            CHANNELS 3 Zrotation Yrotation Xrotation
            JOINT RightToeEnd
            {
              OFFSET -6.660062 0.232574 -2e-06
              CHANNELS 3 Zrotation Yrotation Xrotation
            }
          }
        }
      }
    }
  }
}
MOTION
Frames: 4
Frame Time: 0.03333333333333333
0.0 0.0 0.0 0.0 -0.0 0.0 -4.032571 46.092587 153.430038 99.065094 -58.863884 76.976067 8.342168 -4.245147 -1.048756 -6.041699 -1.698169 1.072173 22.531378 -3.780409 -1.248254 18.711769 0.544004 2.407149 -2.697713 -0.656295 -1.524799 -28.296843 -0.694913 -2.355372 7e-06 -0.0 -1e-06 -0.249681 -0.294839 0.09014 -0.318454 -0.306694 0.066165 -0.278278 -0.284566 0.107009 -62.144505 -72.501007 74.595863 87.798958 -20.754539 -30.571424 20.203957 -1.630896 0.006917 90.51683 76.788147 90.587662 17.636641 -26.322735 52.411186 -19.466665 -14.395598 29.410395 -2e-06 -8.774822 -2e-06 16.372427 -18.228378 6.065478 -0.609775 -1.795655 -3.889327 -4.807091 -11.046811 -2.937849 4e-06 -20.976019 -0.0 -5.019969 -25.033558 -4.03188 6e-06 1e-06 -1e-06 -10.634533 -5.68697 -3.565586 10.573275 -17.922955 -3.1139 3e-06 -13.821213 2e-06 -0.501778 -31.181511 -4.027014 -11.731358 -60.075317 9.213852 -13.982716 -7.150198 -2.875042 13.772732 -8.401495 -3.218241 0.347733 -34.211555 0.771657 -0.963029 -17.733372 2.621022 -0.0 -0.0 1e-06 -17.346424 -20.095224 -4.201778 21.757561 -1.638374 3.866428 2e-06 -6.338824 1e-06 -1.697589 -22.591751 -6.194007 -1e-06 -4e-06 -3e-06 -176.662689 -73.621811 2.072584 83.922188 12.302751 -36.339668 10.493036 0.162259 -0.132239 -1.757796 63.992069 -2.47057 22.18211 -20.375889 49.933308 -16.701811 -16.743526 28.476524 -3e-06 -12.690598 -1e-06 17.107141 -18.579166 2.551647 -0.10592 -1.513856 -4.275879 -5.039041 -5.612869 -2.953557 5e-06 -11.02052 -2e-06 -6.111295 -15.895328 -3.840472 -0.0 0.0 0.0 -10.283368 -5.680287 -4.341837 11.028291 -11.302402 -2.372632 -1.384267 -14.238575 -6.32012 -0.625439 -26.924177 -3.827599 -3.549453 -50.153774 -5.105258 -13.708523 -7.363472 -3.720938 18.141146 -14.052736 -3.242672 7e-06 -18.787262 -2e-06 -0.429712 -8.456043 2.555504 0.0 1e-06 -0.0 -15.923534 -20.094479 -5.473584 30.419205 -7.190828 1.735927 3e-06 -8.162919 -0.0 -1.861902 -22.861465 -6.167937 1e-06 -3e-06 -1e-06 94.684189 -4.974027 -2.827337 127.239967 2.178297 0.809709 -38.367016 2.911588 6.751017 -12.293118 1.424422 2.203579 -1.0 -0.0 0.0 -27.923746 2.379006 12.869044 64.828995 1.241802 -1.222217 -27.77334 8.58244 14.119707 -18.78212 0.923862 0.835358 -1.000003 -1e-06 0.0 
0.0 0.0 0.0 0.0 -0.0 0.0 -4.127531 46.039852 155.939758 101.19973 -59.332516 76.889618 8.006329 -4.314867 -1.256592 -6.281953 -1.77108 0.547864 22.308359 -3.937107 -2.085336 19.190239 1.005576 2.456877 -2.710609 -0.755126 -1.864179 -28.25 -0.79253 -2.528618 7e-06 0.0 -0.0 -0.240509 -0.251181 0.080743 -0.369663 -0.271373 0.054643 -0.34545 -0.229891 0.100921 -62.666801 -74.363724 75.508156 86.005676 -22.292015 -30.549923 21.048594 -1.354591 0.038993 92.031219 75.576981 92.196159 17.636625 -26.322733 52.41119 -19.466663 -14.395596 29.410385 -2e-06 -8.774821 -2e-06 16.409031 -18.227503 5.957715 -0.609776 -1.795654 -3.889326 -4.807087 -11.046816 -2.93785 2e-06 -20.976021 -0.0 -5.019971 -25.03356 -4.031881 6e-06 1e-06 -0.0 -10.634535 -5.68697 -3.565588 10.573272 -17.922956 -3.113901 3e-06 -13.821213 1e-06 -0.501777 -31.181511 -4.027016 -11.661721 -60.093311 9.103364 -13.982714 -7.150198 -2.875041 13.772727 -8.401495 -3.218241 0.347731 -34.211559 0.771654 -0.963029 -17.733372 2.62102 0.0 -0.0 1e-06 -17.346418 -20.095221 -4.201779 21.757557 -1.638375 3.866426 2e-06 -6.338823 1e-06 -1.69759 -22.591747 -6.194007 -1e-06 -4e-06 -1e-06 178.196136 -73.947662 7.238063 86.297707 10.814331 -35.568161 10.214029 -0.016945 -0.125002 -0.346895 66.129318 -1.507278 22.182114 -20.375895 49.933319 -16.701811 -16.74353 28.476522 -2e-06 -12.6906 -1e-06 16.930637 -18.497332 2.613561 -0.10592 -1.513857 -4.275881 -5.039039 -5.61287 -2.953557 3e-06 -11.020521 -1e-06 -6.111299 -15.89533 -3.84047 1e-06 -1e-06 0.0 -10.283371 -5.680288 -4.341836 11.028293 -11.302404 -2.372633 -1.384269 -14.238579 -6.32012 -0.62544 -26.924187 -3.827602 -3.596047 -49.939091 -5.136755 -13.708523 -7.363477 -3.720939 18.141148 -14.052739 -3.242672 6e-06 -18.78727 -2e-06 -0.429712 -8.456047 2.555504 1e-06 1e-06 0.0 -15.923536 -20.094482 -5.473583 30.41921 -7.190827 1.735925 2e-06 -8.162922 -0.0 -1.861904 -22.861469 -6.167942 -1e-06 -4e-06 -1e-06 97.720093 -2.492554 -4.122014 124.291168 2.080987 0.715923 -38.181835 3.671032 7.45462 -12.133995 1.399652 2.153412 -0.999996 -0.0 0.0 -24.958965 0.260552 12.382552 59.50153 1.307313 -1.509006 -26.177938 8.395093 13.737559 -17.754673 0.950542 0.830778 -1.000004 -1e-06 1e-06 
0.0 0.0 0.0 0.0 -0.0 0.0 -4.267681 46.211781 158.203964 103.049011 -59.737305 76.71302 7.611639 -4.402964 -1.313515 -6.449174 -1.636536 0.056432 22.191713 -4.255218 -2.63623 19.310419 1.635028 2.430427 -2.661471 -0.769456 -2.345372 -28.103861 -1.130733 -2.658857 6e-06 -0.0 -1e-06 -0.219214 -0.141687 0.049672 -0.397419 -0.146285 0.004872 -0.359562 -0.138303 0.087989 -64.283981 -76.070778 77.342484 84.298607 -23.479424 -30.655046 22.232586 -1.135821 -0.027386 92.835785 74.368744 93.204872 17.636625 -26.322729 52.411205 -19.466665 -14.395598 29.410395 -2e-06 -8.774822 -2e-06 16.192039 -17.94743 5.865145 -0.609777 -1.795653 -3.889328 -4.807088 -11.046813 -2.937852 5e-06 -20.976019 -1e-06 -5.019968 -25.033558 -4.031885 6e-06 0.0 1e-06 -10.634537 -5.68697 -3.565588 10.573277 -17.922951 -3.113903 4e-06 -13.821209 0.0 -0.501773 -31.181501 -4.027018 -11.093953 -59.545086 8.543123 -13.982715 -7.150197 -2.875043 13.77273 -8.401493 -3.218241 0.347738 -34.211552 0.771653 -0.963027 -17.73337 2.621019 -0.0 -0.0 1e-06 -17.346416 -20.095217 -4.201784 21.757557 -1.638374 3.866428 2e-06 -6.338823 1e-06 -1.697586 -22.591745 -6.194007 -1e-06 -4e-06 -4e-06 173.7612 -74.2939 11.7933 88.001465 9.627625 -35.017216 9.97578 -0.403235 -0.115841 2.514016 67.86882 0.688107 22.182123 -20.375902 49.933323 -16.701817 -16.74353 28.476532 -6e-06 -12.690601 -2e-06 16.5875 -18.338612 2.725503 -0.105919 -1.513856 -4.275881 -5.039042 -5.612872 -2.953557 5e-06 -11.020526 -2e-06 -6.111297 -15.89533 -3.840472 -0.0 0.0 -0.0 -10.283372 -5.680287 -4.341839 11.028297 -11.302408 -2.372633 -1.384267 -14.238583 -6.320122 -0.625436 -26.924191 -3.8276 -3.785057 -49.842636 -4.825356 -13.708526 -7.363475 -3.720941 18.141151 -14.052741 -3.242673 7e-06 -18.78727 -0.0 -0.429712 -8.456047 2.555505 -0.0 1e-06 -0.0 -15.923538 -20.094482 -5.473584 30.419222 -7.190833 1.735925 4e-06 -8.162922 0.0 -1.861902 -22.861473 -6.167942 -1e-06 -3e-06 -0.0 100.351814 -0.6822 -4.995368 121.44529 2.069988 0.638141 -38.321438 4.292349 8.178741 -12.433288 1.43602 2.029767 -0.999998 -0.0 0.0 -22.893494 -1.417674 11.785372 55.637154 1.213459 -1.772339 -25.385986 8.71461 13.622392 -16.465315 0.891649 0.917799 -1.000003 -1e-06 1e-06 
0.0 0.0 0.0 0.0 -0.0 0.0 -4.336704 46.298588 160.214996 103.755562 -60.204784 76.924515 7.330163 -4.210563 -1.249849 -6.637532 -1.593482 -0.143583 22.141706 -4.134292 -2.906045 19.173939 1.765036 2.430174 -2.639697 -0.844012 -2.614329 -28.05488 -1.167178 -2.952172 7e-06 -0.0 -0.0 -0.213109 -0.084341 0.036156 -0.377773 -0.094799 0.011643 -0.356259 -0.073134 0.05493 -66.107994 -77.265274 79.439377 83.00087 -24.266376 -31.181877 23.808334 -0.643444 -0.024067 91.888992 72.975586 92.44149 17.636631 -26.322729 52.411186 -19.466665 -14.3956 29.410393 -2e-06 -8.774822 -1e-06 16.043583 -18.003595 5.812343 -0.609776 -1.795653 -3.889328 -4.80709 -11.046813 -2.937851 3e-06 -20.976021 -0.0 -5.01997 -25.03356 -4.031881 6e-06 1e-06 -0.0 -10.634536 -5.686971 -3.565587 10.573275 -17.922955 -3.113904 3e-06 -13.821211 1e-06 -0.501776 -31.181505 -4.027018 -10.9895 -59.259254 8.243018 -13.982714 -7.150198 -2.875041 13.772731 -8.401493 -3.218242 0.347733 -34.211555 0.771655 -0.963029 -17.733374 2.621019 -0.0 0.0 -0.0 -17.346422 -20.095221 -4.20178 21.757561 -1.638376 3.866426 2e-06 -6.338823 1e-06 -1.697588 -22.591747 -6.194009 -1e-06 -3e-06 -2e-06 171.058777 -74.624367 14.754272 89.165092 8.753678 -34.046459 9.693166 -0.560073 -0.10575 4.513853 69.352837 2.252155 22.18211 -20.375895 49.933319 -16.701811 -16.74353 28.476532 -3e-06 -12.6906 -1e-06 16.47942 -18.300116 2.778412 -0.105919 -1.513856 -4.275882 -5.03904 -5.612871 -2.953557 4e-06 -11.020525 -2e-06 -6.111299 -15.895338 -3.840468 -0.0 1e-06 0.0 -10.283369 -5.68029 -4.341839 11.028293 -11.302406 -2.372633 -1.384268 -14.238583 -6.320123 -0.625438 -26.924189 -3.827602 -3.758075 -49.841267 -4.706911 -13.708523 -7.363478 -3.720939 18.14115 -14.052739 -3.242676 6e-06 -18.78727 -1e-06 -0.429711 -8.456045 2.555504 0.0 -0.0 -0.0 -15.923532 -20.094484 -5.473584 30.41921 -7.190825 1.735924 3e-06 -8.162927 -0.0 -1.861904 -22.861469 -6.167941 -1e-06 -3e-06 -1e-06 102.54364 0.387979 -5.305451 118.941322 1.970202 0.580762 -37.803352 4.822414 8.65941 -12.217055 1.433135 2.000211 -0.999996 0.0 1e-06 -21.734177 -2.362002 11.443783 53.100063 1.281249 -1.886087 -24.524889 8.977304 13.117567 -14.902499 0.872809 0.990138 -1.000002 -0.0 0.0 
